<svg width="34" height="34" viewBox="0 0 34 34" fill="none" xmlns="http://www.w3.org/2000/svg">
<path d="M9.50633 11.3418L1.81013 20.2532V23.4937H22.0633L32.5949 11.3418H9.50633Z" fill="#6F7A87"/>
<path d="M1.40505 21.2804C0.753815 20.7803 7.1699 14.1384 9.92218 11.3418H30.9747" stroke="#525261" stroke-width="2"/>
<path d="M9.91139 2.43038C9.91139 1.08812 10.9995 0 12.3418 0H20.0105C20.8062 0 21.5692 0.316071 22.1318 0.87868L26.8555 5.60233C27.4181 6.16494 27.7342 6.928 27.7342 7.72365V20.2532C27.7342 21.5954 26.6461 22.6835 25.3038 22.6835H12.3418C10.9995 22.6835 9.91139 21.5954 9.91139 20.2532V2.43038Z" fill="#1E5493"/>
<path d="M5.86076 4.8608C5.86076 3.51854 6.94887 2.43042 8.29114 2.43042H15.9599C16.7555 2.43042 17.5186 2.74649 18.0812 3.3091L22.8049 8.03275C23.3675 8.59536 23.6835 9.35842 23.6835 10.1541V22.6836C23.6835 24.0258 22.5954 25.114 21.2532 25.114H8.29114C6.94887 25.114 5.86076 24.0258 5.86076 22.6836V4.8608Z" fill="#3C8DEC"/>
<rect x="9.91139" y="11.3418" width="9.72152" height="2.43038" rx="1" fill="#CBD1DC"/>
<rect x="9.91139" y="16.2026" width="9.72152" height="2.43038" rx="1" fill="#CBD1DC"/>
<path d="M23.2784 32.4053L2.21519 32.4051C1.40506 32.4051 1 32 1 31.1899V22.2785C1 21.8108 1.13502 21.4781 1.40506 21.2804C1.60275 21.1357 1.87279 21.0633 2.21519 21.0633L7.48097 21.0635C8.29109 21.0635 8.69616 21.4686 8.69616 22.2787C8.69616 23.0888 9.10122 23.4939 9.91135 23.4939H15.5822C16.3924 23.4939 16.7974 23.0888 16.7974 22.2787C16.7974 21.4686 17.2025 21.0635 18.0126 21.0635H23.2784C23.6407 21.0635 23.922 21.1445 24.1223 21.3065L32.1899 12.1519C32.3446 11.9971 32.4993 12.0197 32.6315 12.1519C32.8453 12.3658 33 12.8665 33 13.3671V22.2787C33 23.0886 32.5139 23.5747 32.1899 23.8988L25.7089 30.7848C25.3038 31.1899 24.8987 31.595 24.3183 31.9379C24.1275 32.2495 23.7809 32.4053 23.2784 32.4053Z" fill="#59596A"/>
<path d="M24.1223 21.3065C23.922 21.1445 23.6407 21.0635 23.2784 21.0635H18.0126C17.2025 21.0635 16.7974 21.4686 16.7974 22.2787C16.7974 23.0888 16.3924 23.4939 15.5822 23.4939H9.91135C9.10122 23.4939 8.69616 23.0888 8.69616 22.2787C8.69616 21.4686 8.29109 21.0635 7.48097 21.0635L2.21519 21.0633C1.87279 21.0633 1.60275 21.1357 1.40506 21.2804C1.13502 21.4781 1 21.8108 1 22.2785V31.1899C1 32 1.40506 32.4051 2.21519 32.4051L23.2784 32.4053C23.7809 32.4053 24.1275 32.2495 24.3183 31.9379M24.1223 21.3065C24.3698 21.5068 24.4936 21.8308 24.4936 22.2787V31.1901C24.4936 31.4978 24.4352 31.7471 24.3183 31.9379M24.1223 21.3065L32.1899 12.1519C32.3446 11.9971 32.4993 12.0197 32.6315 12.1519M24.3183 31.9379C24.8987 31.595 25.3038 31.1899 25.7089 30.7848L32.1899 23.8988C32.5139 23.5747 33 23.0886 33 22.2787V13.3671C33 12.8665 32.8453 12.3658 32.6315 12.1519M32.6315 12.1519C32.5949 11.3418 31.6228 11.3418 30.9747 11.3418" stroke="#525261" stroke-width="2"/>
</svg>
