<svg width="20" height="20" viewBox="0 0 20 20" fill="none" xmlns="http://www.w3.org/2000/svg">
<path fill-rule="evenodd" clip-rule="evenodd" d="M10 0C4.48 0 0 4.48 0 10C0 15.52 4.48 20 10 20C15.52 20 20 15.52 20 10C20 4.48 15.52 0 10 0ZM11.538 5.57696C11.538 6.036 11.3557 6.47623 11.0311 6.80082C10.7065 7.12541 10.2663 7.30776 9.8073 7.30776C9.34827 7.30776 8.90805 7.12541 8.58347 6.80082C8.25889 6.47623 8.07655 6.036 8.07655 5.57696C8.07655 5.11792 8.25889 4.67768 8.58347 4.35309C8.90805 4.02851 9.34827 3.84615 9.8073 3.84615C10.2663 3.84615 10.7065 4.02851 11.0311 4.35309C11.3557 4.67768 11.538 5.11792 11.538 5.57696ZM12.3065 15.3508C11.8271 15.3015 11.6302 15.1831 11.6408 14.7631V8.46154L6.92308 8.63154V9.41215C6.98576 9.41012 7.05085 9.40728 7.11737 9.40438C7.77914 9.37556 8.58289 9.34056 8.578 10.0226V14.7631C8.54031 15.1385 8.41862 15.3354 7.91231 15.3508L7.06569 15.3662V16.1538H13.0769V15.3662L12.3065 15.3508Z" fill="#CBD1DC"/>
</svg>
