<svg width="32" height="32" viewBox="0 0 32 32" fill="none" xmlns="http://www.w3.org/2000/svg">
<path d="M3.07687 7.3848L2.46149 9.84634V12.3079V13.5386L3.07687 14.7694L3.69226 16.0002L2.46149 17.231V18.4617V20.9233L3.69226 21.5387L5.53841 22.7694L4.92303 25.231L5.53841 27.0771L7.99995 28.3079L9.23072 28.9233L9.8461 30.154L11.6923 30.7694H12.923H14.1538L15.9999 29.5387L17.8461 30.7694H19.0769H20.3076L22.1538 30.154L22.7692 28.9233L23.9999 28.3079L26.4615 27.0771L27.0769 25.231L26.4615 22.7694L28.3076 21.5387L29.5384 20.9233V18.4617V17.231L28.3076 16.0002L28.923 14.7694L29.5384 13.5386V12.3079V9.84634L28.923 7.3848L27.6923 6.15403L26.4615 5.53865L25.2307 4.92326L24.6153 4.30788L23.9999 3.07711L22.1538 1.84634L19.6923 1.23096H18.4615H17.2307L15.9999 1.84634L14.7692 1.23096H13.5384H12.3076L9.8461 1.84634L7.99995 3.07711L7.38456 4.30788L6.76918 4.92326L5.53841 5.53865L4.30764 6.15403L3.07687 7.3848Z" fill="#3C8DEC"/>
<path d="M12.5689 0.353378C10.8227 0.616737 9.84858 0.966177 8.77018 1.72586C7.95546 2.29578 7.1097 3.26986 6.8217 3.96202C6.75418 4.1153 6.6809 4.15818 6.23962 4.28074C3.82554 4.94858 2.02426 7.16042 1.65658 9.91146C1.55258 10.7019 1.6137 12.258 1.78522 13.0545C1.93882 13.802 2.2697 14.8679 2.52698 15.4561L2.70458 15.8667L2.39834 16.3691C2.22682 16.651 2.00634 17.1412 1.89594 17.4596C1.71834 18.0049 1.70618 18.1092 1.69978 18.9361C1.6937 19.9348 1.77338 20.3268 2.10426 21.0068C2.49018 21.7851 3.29914 22.618 4.04026 22.9982C4.35258 23.1575 4.4201 23.2187 4.40186 23.3169C4.3833 23.3844 4.31002 23.6724 4.23642 23.9601C4.05882 24.6219 4.08954 25.547 4.29754 26.1598C4.79386 27.5812 6.2889 28.7268 8.09626 29.0702C8.37818 29.1252 8.61082 29.1742 8.6169 29.1867C8.62298 29.1927 8.72122 29.3767 8.83738 29.5972C9.11322 30.1364 9.8361 30.8532 10.3692 31.1105C11.1107 31.4721 12.1644 31.6804 13.2428 31.6804C14.2662 31.6743 15.0073 31.4171 15.6444 30.8289L15.9996 30.5041L16.3427 30.8228C17.182 31.5825 18.2358 31.8337 19.5225 31.5643C21.2259 31.2151 22.5615 30.2593 23.1801 28.9419C23.3763 28.5252 23.3395 28.5435 24.1174 28.458C26.0598 28.2497 27.5302 27.1959 27.8303 25.7867C27.9651 25.1742 27.8364 24.0894 27.5423 23.3175C27.5177 23.2686 27.6649 23.1521 27.9283 23.0174C28.743 22.5825 29.3987 21.9451 29.846 21.1611C30.6671 19.715 30.5507 17.73 29.5641 16.2535L29.2947 15.8615L29.4723 15.451C29.7295 14.8689 30.0604 13.7969 30.2137 13.0555C30.3852 12.259 30.4467 10.7028 30.3423 9.91242C30.1955 8.83402 29.7971 7.72522 29.2335 6.87338C28.4003 5.60522 27.1443 4.66762 25.7596 4.2817C25.3183 4.15914 25.2451 4.11626 25.1775 3.96298C25.0243 3.5953 24.4854 2.8417 24.0931 2.4497C22.8124 1.18154 21.0479 0.446178 19.0015 0.335779C17.7209 0.262178 16.943 0.476578 16.3548 1.04042L15.9999 1.3889L15.6447 1.03978C15.2527 0.659937 14.8665 0.482338 14.2111 0.371937C13.8431 0.316578 12.8937 0.298338 12.5689 0.353378ZM14.4988 1.73194C14.8847 1.94026 15.1359 2.3569 15.2707 3.0369C15.3747 3.53322 15.4239 28.1876 15.3257 28.8187C15.246 29.3518 15.0927 29.6398 14.7436 29.9521C14.3331 30.3137 13.9779 30.4116 13.1567 30.4055C12.3356 30.3934 12.0601 30.3566 11.4963 30.1972C10.5283 29.9153 10.0441 29.4254 9.69498 28.3591C9.5785 28.0161 9.53562 27.9425 9.42554 27.9425C8.99066 27.9364 8.07162 27.8017 7.72826 27.6913C6.50906 27.2868 5.69402 26.5211 5.43674 25.5223C5.24666 24.8116 5.3449 24.2785 5.84122 23.2923C6.01882 22.9367 6.1721 22.6305 6.18426 22.6059C6.19642 22.5876 5.97594 22.4772 5.69402 22.3668C4.48698 21.8827 3.94778 21.5153 3.48826 20.8718C3.07834 20.2779 2.91898 19.7572 2.92538 18.9668C2.93146 18.2804 3.10906 17.6311 3.43994 17.0551C3.96698 16.1422 5.30874 15.1374 6.3625 14.8679C6.7913 14.7575 7.71642 14.7393 8.25562 14.8372C9.02778 14.9719 9.96506 15.3579 10.4428 15.738C10.7491 15.9831 10.9759 16.0321 11.2393 15.9035C11.4723 15.7931 11.5884 15.5972 11.5884 15.3153C11.5884 14.8007 10.1609 13.9675 8.77626 13.6673C6.97498 13.2814 5.62714 13.5447 4.16282 14.5617C3.89946 14.7454 3.67866 14.8926 3.66042 14.8926C3.60538 14.8926 3.13338 13.3607 3.00474 12.7483C2.82106 11.8843 2.80858 10.3281 2.97402 9.59306C3.28026 8.26346 3.89306 7.21578 4.8121 6.43786C5.47994 5.86794 6.17242 5.54954 7.19546 5.34122L7.6857 5.2433L7.79002 4.93706C8.3353 3.32586 9.97114 2.08202 12.0604 1.6897C12.7158 1.5665 14.2415 1.59114 14.4988 1.73194ZM20.4236 1.79946C22.2985 2.2897 23.7075 3.45994 24.2102 4.93642L24.3142 5.24266L24.8044 5.34058C25.8275 5.5489 26.5199 5.86762 27.1878 6.43722C28.1068 7.21546 28.7196 8.26314 29.0259 9.59242C29.1913 10.3278 29.1791 11.8839 28.9951 12.7476C28.8054 13.642 28.4559 14.7083 28.2844 14.8919C28.2108 14.9777 28.0579 15.2228 27.9475 15.4433C27.2428 16.8897 25.8518 17.6558 23.6156 17.8334C23.1622 17.8702 22.7273 17.9252 22.6476 17.9559C22.2985 18.0907 22.1942 18.6116 22.4579 18.9179C22.5865 19.0711 22.6476 19.0894 23.0767 19.1076C24.198 19.1687 25.6806 18.8503 26.7407 18.3233C27.2921 18.0475 28.1622 17.4043 28.3398 17.1287C28.3948 17.043 28.4684 16.9755 28.4991 16.9755C28.5299 16.9755 28.6399 17.1348 28.7382 17.3307C29.3203 18.4763 29.2713 19.763 28.6217 20.7556C28.1804 21.4235 27.6047 21.8462 26.5385 22.2689C26.2198 22.3975 25.9318 22.5262 25.9014 22.5508C25.8707 22.5815 25.9625 22.8695 26.1343 23.2494C26.6489 24.4075 26.7715 25.21 26.5142 25.8228C26.1772 26.6375 24.9395 27.2075 23.4998 27.2321C22.8259 27.2382 22.8259 27.2382 22.3417 26.9931C21.6985 26.6683 21.055 26.0433 20.7916 25.4919C20.5833 25.0446 20.4118 24.3035 20.4118 23.8375C20.4118 23.0654 19.8665 22.6612 19.3823 23.0718C19.1433 23.2679 19.1129 23.4577 19.1923 24.2481C19.3577 25.9879 20.1788 27.2503 21.686 28.0711C21.8943 28.1815 22.0659 28.3102 22.0659 28.347C22.0659 28.5063 21.5452 29.1863 21.2204 29.4497C20.8284 29.7684 20.5158 29.9399 19.8604 30.179C19.4559 30.3323 19.3091 30.3505 18.6659 30.3566C18.0102 30.3627 17.9001 30.3505 17.655 30.2219C17.0729 29.9156 16.7849 29.5111 16.6748 28.8555C16.5891 28.3223 16.5891 4.66026 16.6748 3.6801C16.7667 2.61418 16.9507 2.13002 17.3548 1.82378C17.6121 1.6337 17.8755 1.6033 18.8803 1.62154C19.6515 1.6401 19.9395 1.6769 20.4236 1.79946Z" fill="#1E5493"/>
<path d="M11.8153 6.76811C11.7049 6.87243 11.6377 7.02539 11.5823 7.29515C11.3861 8.31211 10.4306 8.94315 8.91095 9.06571C8.23095 9.11467 8.01015 9.21291 7.90615 9.48843C7.75287 9.88683 8.01015 10.2728 8.47607 10.3339C8.78231 10.3768 9.59735 10.2849 10.1548 10.1438C11.6373 9.77003 12.8015 8.53259 12.8261 7.31915C12.8322 6.97611 12.6975 6.71883 12.477 6.65739C12.2137 6.58443 11.9746 6.62123 11.8153 6.76811Z" fill="#1E5493"/>
<path d="M7.13433 19.169C6.82809 19.1997 6.62585 19.4324 6.62585 19.7511C6.62585 20.1431 6.80345 20.2903 7.45305 20.4679C8.70905 20.7988 9.48121 21.4605 9.95289 22.6122C10.1612 23.1146 10.2287 23.4394 10.3327 24.3585C10.4063 25.0263 10.4307 25.106 10.5779 25.2285C10.7983 25.4183 11.1599 25.4183 11.3865 25.2225C11.5398 25.0938 11.558 25.0327 11.5763 24.6097C11.607 24.0583 11.4598 23.0964 11.2515 22.4836C10.6694 20.7741 9.38873 19.6039 7.68569 19.2301C7.48985 19.1873 7.24473 19.1569 7.13433 19.169Z" fill="#1E5493"/>
<path d="M20.7424 7.91415C20.2889 8.13463 20.3133 8.99255 20.8035 10.0217C21.367 11.2165 22.5741 12.1785 24.0262 12.5887C24.6083 12.7541 25.8397 12.8949 26.1341 12.8338C26.52 12.7541 26.7469 12.3621 26.6057 12.0005C26.5017 11.7186 26.2809 11.6268 25.5641 11.5717C24.4061 11.486 23.5853 11.198 22.8621 10.6281C22.231 10.1317 21.8326 9.46391 21.6736 8.64311C21.6061 8.26935 21.5571 8.15895 21.3977 8.01815C21.1955 7.84055 20.975 7.80375 20.7424 7.91415Z" fill="#1E5493"/>
</svg>
