<svg width="40" height="40" viewBox="0 0 40 40" fill="none" xmlns="http://www.w3.org/2000/svg">
<path d="M33.78 21.7589L33.6697 22.6173L34.3578 23.1424L38.3265 26.1711L34.6576 32.3556L29.9166 30.4938L29.1344 30.1866L28.4639 30.6933C27.5105 31.4138 26.4633 32.0093 25.3292 32.4705L24.5336 32.7941L24.41 33.6441L23.7037 38.5H16.286L15.5797 33.6441L15.4561 32.7941L14.6605 32.4705C13.5322 32.0116 12.4815 31.4065 11.5185 30.6878L10.8498 30.1888L10.0731 30.4938L5.33212 32.3556L1.66324 26.1711L5.63192 23.1424L6.31998 22.6173L6.20969 21.7589C6.13133 21.1489 6.07802 20.5695 6.07802 20C6.07802 19.4305 6.13133 18.8511 6.20969 18.2411L6.31998 17.3827L5.63192 16.8576L1.66324 13.8289L5.33212 7.6444L10.0731 9.5062L10.8553 9.81337L11.5258 9.30672C12.4792 8.58622 13.5264 7.99074 14.6605 7.52947L15.4561 7.20586L15.5797 6.35589L16.286 1.5H23.714L24.4203 6.35589L24.5439 7.20586L25.3395 7.52947C26.4678 7.98839 27.5185 8.59353 28.4815 9.31216L29.1502 9.8112L29.9269 9.5062L34.6679 7.64439L38.3365 13.8284L34.3592 16.8565L33.6696 17.3815L33.78 18.2411C33.8584 18.8511 33.9117 19.4305 33.9117 20C33.9117 20.5695 33.8584 21.1489 33.78 21.7589Z" stroke="#3C8DEC" stroke-width="3"/>
<path d="M25.5 20C25.5 23.0376 23.0376 25.5 20 25.5C16.9624 25.5 14.5 23.0376 14.5 20C14.5 16.9624 16.9624 14.5 20 14.5C23.0376 14.5 25.5 16.9624 25.5 20Z" stroke="#3C8DEC" stroke-width="3"/>
</svg>
