<svg width="16" height="12" viewBox="0 0 16 12" fill="none" xmlns="http://www.w3.org/2000/svg">
<path d="M7.46667 0L3.73333 3.27273H0V8.72727H3.73333L7.46667 12V0ZM13.8 0.477273L12.8 0.920455C13.7982 2.35511 14.4 4.10705 14.4 6C14.4 7.89295 13.7982 9.64478 12.8 11.0795L13.8 11.5227C14.8499 9.95411 15.4667 8.04698 15.4667 6C15.4667 3.95302 14.8499 2.04589 13.8 0.477273ZM11.7667 1.36364L10.7667 1.77273C11.7061 2.91436 12.2667 4.38687 12.2667 6C12.2667 7.61313 11.7061 9.08564 10.7667 10.2273L11.7667 10.6364C12.7426 9.34778 13.3333 7.75484 13.3333 6C13.3333 4.24516 12.7426 2.65222 11.7667 1.36364ZM9.7 2.21591L8.63333 2.69318C9.54981 3.49205 10.1333 4.66647 10.1333 6C10.1333 7.33353 9.54981 8.50784 8.63333 9.30682L9.7 9.78409C10.6326 8.80391 11.2 7.4688 11.2 6C11.2 4.5312 10.6326 3.19598 9.7 2.21591Z" fill="#CBD1DC"/>
</svg>
