<svg width="90" height="60" viewBox="0 0 90 60" fill="none" xmlns="http://www.w3.org/2000/svg">
<g clip-path="url(#clip0_103_163)">
<rect width="90" height="60" fill="white"/>
<rect width="90" height="20" fill="#8B8B8B"/>
<rect y="20" width="90" height="20" fill="#6C6C6C"/>
<rect y="40" width="90" height="20" fill="#545454"/>
<path d="M44.2479 11.9C47.7145 11.9 50.4979 12.85 52.5979 14.75C54.7312 16.6167 55.7979 19.2 55.7979 22.5C55.7979 25.7667 54.7479 28.2667 52.6479 30C50.5479 31.7 47.7645 32.55 44.2979 32.55L44.0979 36.4H37.9479L37.6979 27.9H39.9479C42.8479 27.9 45.0812 27.5167 46.6479 26.75C48.2145 25.9833 48.9979 24.5833 48.9979 22.55C48.9979 21.0833 48.5645 19.9167 47.6979 19.05C46.8645 18.1833 45.7145 17.75 44.2479 17.75C42.7145 17.75 41.5145 18.1667 40.6479 19C39.8145 19.8333 39.3979 20.9833 39.3979 22.45H32.7979C32.7645 20.4167 33.1979 18.6 34.0979 17C34.9979 15.4 36.3145 14.15 38.0479 13.25C39.8145 12.35 41.8812 11.9 44.2479 11.9ZM40.9979 48.35C39.7312 48.35 38.6812 47.9667 37.8479 47.2C37.0479 46.4 36.6479 45.4167 36.6479 44.25C36.6479 43.0833 37.0479 42.1167 37.8479 41.35C38.6812 40.55 39.7312 40.15 40.9979 40.15C42.2312 40.15 43.2479 40.55 44.0479 41.35C44.8479 42.1167 45.2479 43.0833 45.2479 44.25C45.2479 45.4167 44.8479 46.4 44.0479 47.2C43.2479 47.9667 42.2312 48.35 40.9979 48.35Z" fill="white"/>
</g>
<defs>
<clipPath id="clip0_103_163">
<rect width="90" height="60" fill="white"/>
</clipPath>
</defs>
</svg>
